<svg width="900" height="900" viewBox="0 0 900 900" fill="none" xmlns="http://www.w3.org/2000/svg" role="img" aria-labelledby="title desc">
  <title id="title">UGREEN Nexode 100W USB-C charger</title>
  <desc id="desc">A compact multi-port wall charger illustrated with USB-C ports and folded prongs.</desc>
  <rect width="900" height="900" rx="72" fill="#FFF9EF"/>
  <circle cx="210" cy="172" r="96" fill="#F7E5B6"/>
  <ellipse cx="470" cy="750" rx="214" ry="42" fill="#111827" opacity="0.12"/>
  <path d="M302 232C302 196.654 330.654 168 366 168H604C639.346 168 668 196.654 668 232V612C668 647.346 639.346 676 604 676H366C330.654 676 302 647.346 302 612V232Z" fill="#F7F8F8" stroke="#D7DEE2" stroke-width="10"/>
  <path d="M668 298H704C719.464 298 732 310.536 732 326V390C732 405.464 719.464 418 704 418H668V298Z" fill="#E5EBEF" stroke="#C9D2D8" stroke-width="8"/>
  <path d="M668 448H704C719.464 448 732 460.536 732 476V540C732 555.464 719.464 568 704 568H668V448Z" fill="#E5EBEF" stroke="#C9D2D8" stroke-width="8"/>
  <rect x="380" y="258" width="210" height="84" rx="24" fill="#1F2933"/>
  <rect x="415" y="284" width="58" height="32" rx="16" fill="#8DE0D9"/>
  <rect x="497" y="284" width="58" height="32" rx="16" fill="#8DE0D9"/>
  <rect x="392" y="382" width="186" height="64" rx="22" fill="#111827" opacity="0.86"/>
  <rect x="431" y="404" width="108" height="20" rx="10" fill="#DDF3F1"/>
  <text x="485" y="536" text-anchor="middle" fill="#111827" font-family="Avenir, Arial, sans-serif" font-size="50" font-weight="900">100W</text>
  <text x="485" y="590" text-anchor="middle" fill="#52616B" font-family="Avenir, Arial, sans-serif" font-size="30" font-weight="700">USB-C Charger</text>
  <text x="485" y="832" text-anchor="middle" fill="#111827" font-family="Avenir, Arial, sans-serif" font-size="34" font-weight="800">UGREEN Nexode</text>
</svg>
